<svg width="472" height="115" viewBox="0 0 472 115" fill="none" xmlns="http://www.w3.org/2000/svg">
<mask id="path-1-outside-1_139_33" maskUnits="userSpaceOnUse" x="0" y="0" width="472" height="115" fill="black">
<rect fill="white" width="472" height="115"/>
<path d="M1 109.324L13.4889 104.648L56.4197 1H61.103L105.595 106.986L113.4 109.324V111.662H94.6671C89.2552 111.662 84.832 110.467 81.3976 108.077C77.9631 105.583 75.4133 102.362 73.7481 98.4138L65.7864 79.7103H28.4757L18.1723 104.648L29.8807 109.324V111.662H1V109.324ZM30.0368 75.8138H64.2253L47.053 34.8221L30.0368 75.8138Z"/>
<path d="M167.991 114C161.018 114 155.19 111.662 150.506 106.986C148.529 104.908 146.812 102.57 145.355 99.9724C144.626 102.258 143.377 104.337 141.608 106.207C137.653 110.363 131.877 112.441 124.279 112.441H122.718V7.23449L113.352 4.89655V2.55862H133.646C143.013 2.55862 147.696 7.23448 147.696 16.5862V37.6276C149.361 36.2768 150.975 35.2377 152.536 34.5103C156.282 32.4322 160.654 31.3931 165.649 31.3931C176.161 31.3931 184.487 34.9779 190.627 42.1476C196.871 49.2133 199.994 59.3963 199.994 72.6966C199.994 81.5287 198.589 89.0621 195.779 95.2965C192.969 101.427 189.17 106.103 184.383 109.324C179.595 112.441 174.131 114 167.991 114ZM161.746 108.545C165.077 108.545 167.835 105.947 170.02 100.752C172.31 95.4524 173.455 86.1007 173.455 72.6966C173.455 58.669 172.206 49.0575 169.708 43.8621C167.314 38.6667 163.88 36.069 159.405 36.069C156.699 36.069 153.941 37.108 151.131 39.1862C150.298 39.8097 149.153 40.8487 147.696 42.3034V96.0759C148.633 98.4657 149.778 100.544 151.131 102.31C154.253 106.467 157.791 108.545 161.746 108.545Z"/>
<path d="M253.889 114C240.984 114 230.836 110.363 223.447 103.09C216.162 95.7122 212.519 85.5811 212.519 72.6966C212.519 59.812 216.162 49.7329 223.447 42.4593C230.836 35.0818 240.984 31.3931 253.889 31.3931C266.794 31.3931 276.889 35.0818 284.175 42.4593C291.564 49.7329 295.258 59.812 295.258 72.6966C295.258 85.5811 291.564 95.7122 284.175 103.09C276.889 110.363 266.794 114 253.889 114ZM253.889 110.883C258.052 110.883 261.538 107.973 264.348 102.154C267.262 96.3356 268.719 86.5163 268.719 72.6966C268.719 58.8768 267.262 49.0575 264.348 43.2386C261.538 37.4198 258.052 34.5103 253.889 34.5103C249.726 34.5103 246.187 37.4198 243.273 43.2386C240.463 49.0575 239.058 58.8768 239.058 72.6966C239.058 86.5163 240.463 96.3356 243.273 102.154C246.187 107.973 249.726 110.883 253.889 110.883Z"/>
<path d="M345.269 114C339.441 114 334.185 112.805 329.502 110.415C324.923 107.921 321.332 104.7 318.73 100.752C316.128 96.8032 314.827 92.6469 314.827 88.2828V38.4069L305.461 36.069V33.731H325.755C335.122 33.731 339.805 38.4069 339.805 47.7586V88.2828C339.805 94.829 340.95 99.8685 343.24 103.401C345.633 106.83 348.391 108.545 351.514 108.545C355.364 108.545 358.851 106.467 361.973 102.31C363.118 100.752 364.315 98.6736 365.564 96.0759V38.4069L356.197 36.069V33.731H399.908V36.069L390.541 38.4069V112.441H388.98C381.383 112.441 375.607 110.363 371.652 106.207C369.883 104.337 368.634 102.258 367.905 99.9724C366.448 102.57 364.731 104.908 362.754 106.986C358.07 111.662 352.242 114 345.269 114Z"/>
<path d="M449.925 114C443.056 114 437.072 112.753 431.972 110.259C426.976 107.766 423.126 104.337 420.42 99.9724C417.714 95.6083 416.361 90.6726 416.361 85.1655V37.6276H405.433V33.731H416.361V25.9379C416.361 16.5862 421.044 11.9103 430.411 11.9103H441.339V33.731H463.194V37.6276H441.339V85.1655C441.339 94.7251 442.327 101.271 444.305 104.804C446.282 108.337 449.196 110.103 453.047 110.103C456.794 110.103 460.072 108.285 462.882 104.648C465.692 101.011 467.097 96.0759 467.097 89.8414H471C471 97.5306 469.075 103.505 465.224 107.766C461.373 111.922 456.273 114 449.925 114Z"/>
</mask>
<path d="M1 109.324L13.4889 104.648L56.4197 1H61.103L105.595 106.986L113.4 109.324V111.662H94.6671C89.2552 111.662 84.832 110.467 81.3976 108.077C77.9631 105.583 75.4133 102.362 73.7481 98.4138L65.7864 79.7103H28.4757L18.1723 104.648L29.8807 109.324V111.662H1V109.324ZM30.0368 75.8138H64.2253L47.053 34.8221L30.0368 75.8138Z" fill="#191D28"/>
<path d="M167.991 114C161.018 114 155.19 111.662 150.506 106.986C148.529 104.908 146.812 102.57 145.355 99.9724C144.626 102.258 143.377 104.337 141.608 106.207C137.653 110.363 131.877 112.441 124.279 112.441H122.718V7.23449L113.352 4.89655V2.55862H133.646C143.013 2.55862 147.696 7.23448 147.696 16.5862V37.6276C149.361 36.2768 150.975 35.2377 152.536 34.5103C156.282 32.4322 160.654 31.3931 165.649 31.3931C176.161 31.3931 184.487 34.9779 190.627 42.1476C196.871 49.2133 199.994 59.3963 199.994 72.6966C199.994 81.5287 198.589 89.0621 195.779 95.2965C192.969 101.427 189.17 106.103 184.383 109.324C179.595 112.441 174.131 114 167.991 114ZM161.746 108.545C165.077 108.545 167.835 105.947 170.02 100.752C172.31 95.4524 173.455 86.1007 173.455 72.6966C173.455 58.669 172.206 49.0575 169.708 43.8621C167.314 38.6667 163.88 36.069 159.405 36.069C156.699 36.069 153.941 37.108 151.131 39.1862C150.298 39.8097 149.153 40.8487 147.696 42.3034V96.0759C148.633 98.4657 149.778 100.544 151.131 102.31C154.253 106.467 157.791 108.545 161.746 108.545Z" fill="#191D28"/>
<path d="M253.889 114C240.984 114 230.836 110.363 223.447 103.09C216.162 95.7122 212.519 85.5811 212.519 72.6966C212.519 59.812 216.162 49.7329 223.447 42.4593C230.836 35.0818 240.984 31.3931 253.889 31.3931C266.794 31.3931 276.889 35.0818 284.175 42.4593C291.564 49.7329 295.258 59.812 295.258 72.6966C295.258 85.5811 291.564 95.7122 284.175 103.09C276.889 110.363 266.794 114 253.889 114ZM253.889 110.883C258.052 110.883 261.538 107.973 264.348 102.154C267.262 96.3356 268.719 86.5163 268.719 72.6966C268.719 58.8768 267.262 49.0575 264.348 43.2386C261.538 37.4198 258.052 34.5103 253.889 34.5103C249.726 34.5103 246.187 37.4198 243.273 43.2386C240.463 49.0575 239.058 58.8768 239.058 72.6966C239.058 86.5163 240.463 96.3356 243.273 102.154C246.187 107.973 249.726 110.883 253.889 110.883Z" fill="#191D28"/>
<path d="M345.269 114C339.441 114 334.185 112.805 329.502 110.415C324.923 107.921 321.332 104.7 318.73 100.752C316.128 96.8032 314.827 92.6469 314.827 88.2828V38.4069L305.461 36.069V33.731H325.755C335.122 33.731 339.805 38.4069 339.805 47.7586V88.2828C339.805 94.829 340.95 99.8685 343.24 103.401C345.633 106.83 348.391 108.545 351.514 108.545C355.364 108.545 358.851 106.467 361.973 102.31C363.118 100.752 364.315 98.6736 365.564 96.0759V38.4069L356.197 36.069V33.731H399.908V36.069L390.541 38.4069V112.441H388.98C381.383 112.441 375.607 110.363 371.652 106.207C369.883 104.337 368.634 102.258 367.905 99.9724C366.448 102.57 364.731 104.908 362.754 106.986C358.07 111.662 352.242 114 345.269 114Z" fill="#191D28"/>
<path d="M449.925 114C443.056 114 437.072 112.753 431.972 110.259C426.976 107.766 423.126 104.337 420.42 99.9724C417.714 95.6083 416.361 90.6726 416.361 85.1655V37.6276H405.433V33.731H416.361V25.9379C416.361 16.5862 421.044 11.9103 430.411 11.9103H441.339V33.731H463.194V37.6276H441.339V85.1655C441.339 94.7251 442.327 101.271 444.305 104.804C446.282 108.337 449.196 110.103 453.047 110.103C456.794 110.103 460.072 108.285 462.882 104.648C465.692 101.011 467.097 96.0759 467.097 89.8414H471C471 97.5306 469.075 103.505 465.224 107.766C461.373 111.922 456.273 114 449.925 114Z" fill="#191D28"/>
<path d="M1 109.324L13.4889 104.648L56.4197 1H61.103L105.595 106.986L113.4 109.324V111.662H94.6671C89.2552 111.662 84.832 110.467 81.3976 108.077C77.9631 105.583 75.4133 102.362 73.7481 98.4138L65.7864 79.7103H28.4757L18.1723 104.648L29.8807 109.324V111.662H1V109.324ZM30.0368 75.8138H64.2253L47.053 34.8221L30.0368 75.8138Z" stroke="#FCCA6E" stroke-width="2" mask="url(#path-1-outside-1_139_33)"/>
<path d="M167.991 114C161.018 114 155.19 111.662 150.506 106.986C148.529 104.908 146.812 102.57 145.355 99.9724C144.626 102.258 143.377 104.337 141.608 106.207C137.653 110.363 131.877 112.441 124.279 112.441H122.718V7.23449L113.352 4.89655V2.55862H133.646C143.013 2.55862 147.696 7.23448 147.696 16.5862V37.6276C149.361 36.2768 150.975 35.2377 152.536 34.5103C156.282 32.4322 160.654 31.3931 165.649 31.3931C176.161 31.3931 184.487 34.9779 190.627 42.1476C196.871 49.2133 199.994 59.3963 199.994 72.6966C199.994 81.5287 198.589 89.0621 195.779 95.2965C192.969 101.427 189.17 106.103 184.383 109.324C179.595 112.441 174.131 114 167.991 114ZM161.746 108.545C165.077 108.545 167.835 105.947 170.02 100.752C172.31 95.4524 173.455 86.1007 173.455 72.6966C173.455 58.669 172.206 49.0575 169.708 43.8621C167.314 38.6667 163.88 36.069 159.405 36.069C156.699 36.069 153.941 37.108 151.131 39.1862C150.298 39.8097 149.153 40.8487 147.696 42.3034V96.0759C148.633 98.4657 149.778 100.544 151.131 102.31C154.253 106.467 157.791 108.545 161.746 108.545Z" stroke="#FCCA6E" stroke-width="2" mask="url(#path-1-outside-1_139_33)"/>
<path d="M253.889 114C240.984 114 230.836 110.363 223.447 103.09C216.162 95.7122 212.519 85.5811 212.519 72.6966C212.519 59.812 216.162 49.7329 223.447 42.4593C230.836 35.0818 240.984 31.3931 253.889 31.3931C266.794 31.3931 276.889 35.0818 284.175 42.4593C291.564 49.7329 295.258 59.812 295.258 72.6966C295.258 85.5811 291.564 95.7122 284.175 103.09C276.889 110.363 266.794 114 253.889 114ZM253.889 110.883C258.052 110.883 261.538 107.973 264.348 102.154C267.262 96.3356 268.719 86.5163 268.719 72.6966C268.719 58.8768 267.262 49.0575 264.348 43.2386C261.538 37.4198 258.052 34.5103 253.889 34.5103C249.726 34.5103 246.187 37.4198 243.273 43.2386C240.463 49.0575 239.058 58.8768 239.058 72.6966C239.058 86.5163 240.463 96.3356 243.273 102.154C246.187 107.973 249.726 110.883 253.889 110.883Z" stroke="#FCCA6E" stroke-width="2" mask="url(#path-1-outside-1_139_33)"/>
<path d="M345.269 114C339.441 114 334.185 112.805 329.502 110.415C324.923 107.921 321.332 104.7 318.73 100.752C316.128 96.8032 314.827 92.6469 314.827 88.2828V38.4069L305.461 36.069V33.731H325.755C335.122 33.731 339.805 38.4069 339.805 47.7586V88.2828C339.805 94.829 340.95 99.8685 343.24 103.401C345.633 106.83 348.391 108.545 351.514 108.545C355.364 108.545 358.851 106.467 361.973 102.31C363.118 100.752 364.315 98.6736 365.564 96.0759V38.4069L356.197 36.069V33.731H399.908V36.069L390.541 38.4069V112.441H388.98C381.383 112.441 375.607 110.363 371.652 106.207C369.883 104.337 368.634 102.258 367.905 99.9724C366.448 102.57 364.731 104.908 362.754 106.986C358.07 111.662 352.242 114 345.269 114Z" stroke="#FCCA6E" stroke-width="2" mask="url(#path-1-outside-1_139_33)"/>
<path d="M449.925 114C443.056 114 437.072 112.753 431.972 110.259C426.976 107.766 423.126 104.337 420.42 99.9724C417.714 95.6083 416.361 90.6726 416.361 85.1655V37.6276H405.433V33.731H416.361V25.9379C416.361 16.5862 421.044 11.9103 430.411 11.9103H441.339V33.731H463.194V37.6276H441.339V85.1655C441.339 94.7251 442.327 101.271 444.305 104.804C446.282 108.337 449.196 110.103 453.047 110.103C456.794 110.103 460.072 108.285 462.882 104.648C465.692 101.011 467.097 96.0759 467.097 89.8414H471C471 97.5306 469.075 103.505 465.224 107.766C461.373 111.922 456.273 114 449.925 114Z" stroke="#FCCA6E" stroke-width="2" mask="url(#path-1-outside-1_139_33)"/>
</svg>
