<svg width="128" height="91" viewBox="0 0 128 91" fill="none" xmlns="http://www.w3.org/2000/svg">
<path fill-rule="evenodd" clip-rule="evenodd" d="M79.8283 1.82843C81.3904 0.266338 83.9231 0.266338 85.4852 1.82843L126.455 42.7986C127.242 43.585 127.632 44.6175 127.627 45.6482C127.629 46.6748 127.239 47.7021 126.455 48.4853L85.4851 89.4554C83.923 91.0175 81.3904 91.0175 79.8283 89.4554C78.2662 87.8933 78.2662 85.3607 79.8283 83.7986L113.627 50H4C1.79086 50 0 48.2091 0 46C0 43.7909 1.79086 42 4 42H114.343L79.8283 7.48529C78.2662 5.92319 78.2662 3.39053 79.8283 1.82843Z" fill="#191D28"/>
</svg>
