<svg width="48" height="52" viewBox="0 0 48 52" fill="none" xmlns="http://www.w3.org/2000/svg">
<path d="M15.7732 35.4456L16.5 35.8155V35V22V20V4C16.5 2.06614 18.0661 0.5 20 0.5C21.9339 0.5 23.5 2.06614 23.5 4V20H24H24.5C24.5 18.0661 26.0661 16.5 28 16.5C29.9338 16.5 31.5 18.0661 31.5 20V22H32H32.5C32.5 20.067 34.067 18.5 36 18.5C37.933 18.5 39.5 20.067 39.5 22V22.2175L39.6592 22.3658L39.9473 22.0565C39.6592 22.3658 39.6592 22.3659 39.6593 22.3659L39.6594 22.366L39.6596 22.3662L39.66 22.3666L39.661 22.3676L39.6637 22.37L39.6714 22.377C39.6776 22.3826 39.6859 22.39 39.6963 22.3991C39.7171 22.4172 39.7464 22.4421 39.7838 22.4724C39.8586 22.5329 39.9663 22.6155 40.1052 22.7101L40.5896 23.04L40.8391 22.5098C41.4155 21.285 42.6464 20.5023 44 20.5C45.933 20.5 47.5 22.067 47.5 24V44C47.5 48.1418 44.1418 51.5 40 51.5H26.6289C22.5175 51.5 18.5723 49.8652 15.666 46.9589L9.35355 40.6464L9.2884 40.5813L9.2043 40.5436L0.513043 36.6528C0.597238 35.0837 1.25157 34.0922 2.16744 33.4676C3.17431 32.781 4.55497 32.5 6 32.5C8.47748 32.5 10.7172 32.872 15.7732 35.4456ZM0.489869 37.0955L0.49082 37.091C0.490126 37.0944 0.489523 37.097 0.489869 37.0955Z" stroke="#FCCA6E"/>
</svg>
