<svg width="577" height="194" viewBox="0 0 577 194" fill="none" xmlns="http://www.w3.org/2000/svg">
<path d="M236.164 117.217C236.164 117.217 265.211 122.063 296.604 113.657C305.066 111.396 313.868 110.718 322.571 111.636C337.886 113.275 363.697 115.324 390.583 114.349C392.406 114.278 394.228 114.109 396.036 113.84L420.619 110.266C422.413 110.012 424.222 109.828 426.03 109.757L442.786 108.995C449.271 108.698 455.388 105.717 459.471 100.645C462.113 97.3672 464.727 93.1288 464.317 84.7932C463.639 71.1597 461.972 66.5116 456.377 62.6264C453.608 60.705 450.472 59.3911 447.194 58.5999C439.042 56.6502 420.252 52.9911 400.077 54.8277C377.077 56.9187 332.658 47.3964 320.197 44.5849C317.781 44.0339 315.408 43.3275 313.091 42.4233C306.126 39.7108 293.962 31.9969 290.571 26.0772C285.683 17.5156 239.795 1 212.881 1C185.967 1 152.173 7.82384 143.145 13.2349C133.976 18.7448 3.36883e-06 33.5086 3.36883e-06 33.5086" stroke="#FCCA6E" stroke-miterlimit="10"/>
<path d="M450.076 69.3654C445.4 68.3765 436.556 66.8648 429.52 67.8537C426.934 68.2069 424.843 70.1425 424.208 72.6855C422.258 80.4418 419.051 97.3813 419.051 99.4864C419.051 101.931 417.822 103.16 426.398 104.375C431.371 105.081 438.83 104.558 444.213 103.993C448.918 103.499 453.128 100.8 455.445 96.689C458.765 90.7835 461.774 81.7275 455.996 73.3213C454.597 71.2868 452.478 69.874 450.062 69.3654H450.076Z" stroke="#FCCA6E" stroke-miterlimit="10"/>
<path d="M278.364 93.369C278.364 93.369 256.339 81.1341 242.889 81.1341C230.174 81.1341 205.464 80.0462 196.577 75.7937C195.292 75.1862 194.02 74.5646 192.692 74.0418L181.178 69.5209C173.421 66.4833 166.739 61.1712 162.034 54.305L153.586 41.9854" stroke="#FCCA6E" stroke-miterlimit="10"/>
<path d="M378.857 67.5288C378.857 67.5288 379.916 72.5584 378.687 75.0167C377.458 77.4749 375.014 97.0422 375.014 99.4864" stroke="#FCCA6E" stroke-miterlimit="10"/>
<path d="M367.682 66.4551C367.682 66.4551 363.952 73.8158 364.008 86.0365C364.051 93.4114 362.384 95.799 366.904 106.098" stroke="#FCCA6E" stroke-miterlimit="10"/>
<path d="M0.0423882 169.703L96.0564 143.947C100.139 142.845 104.335 142.209 108.56 142.054L159.477 140.062C162.896 139.935 166.315 140.034 169.706 140.373L178.592 141.263C185.557 141.955 192.409 143.495 199.007 145.826L320.014 188.733C321.78 189.355 323.531 190.047 325.269 190.767C328.392 192.067 335.456 194.299 341.093 190.725C346.023 187.589 350.982 184.495 356.266 182.008L448.437 138.635L526.735 108.048L567.056 91.7018C572.806 89.3707 574.798 82.1654 570.97 77.2913C569.246 75.0873 566.576 72.6855 562.563 70.1566C559.639 68.3058 556.333 67.1615 552.886 66.8789C544.352 66.1866 526.466 66.8789 504.723 79.9049C504.723 79.9049 482.698 76.2316 464.345 84.7932" stroke="#FCCA6E" stroke-miterlimit="10"/>
<path d="M362.935 114.406C362.935 114.406 360.335 127.615 366.452 143.523" stroke="#FCCA6E" stroke-miterlimit="10"/>
<path d="M347.493 113.713C347.493 113.713 350.544 120.283 335.865 141.079" stroke="#FCCA6E" stroke-miterlimit="10"/>
<path d="M319.166 111.354C319.166 111.354 319.971 119.054 301.619 131.289" stroke="#FCCA6E" stroke-miterlimit="10"/>
<path d="M296.604 113.657C296.604 113.657 284.482 126.457 278.364 128.265" stroke="#FCCA6E" stroke-miterlimit="10"/>
<path d="M569.557 75.6948L573.569 70.2131C576.395 66.3421 577.073 61.2984 575.349 56.8198L575.095 56.1558C572.693 49.9253 567.169 45.4326 560.571 44.4295C555.725 43.6949 549.58 43.6666 542.629 45.6445C525.506 50.5328 514.486 62.7677 514.486 62.7677C514.486 62.7677 497.363 61.5385 485.128 70.1142C485.128 70.1142 461.011 68.8851 463.893 78.6758" stroke="#FCCA6E" stroke-miterlimit="10"/>
<path d="M518.795 72.8268L514.486 62.7818" stroke="#FCCA6E" stroke-miterlimit="10"/>
<path d="M486.569 79.368L485.128 70.1142" stroke="#FCCA6E" stroke-miterlimit="10"/>
<path d="M504.695 79.905C504.695 79.905 504.201 88.4665 510.558 95.8131" stroke="#FCCA6E" stroke-miterlimit="10"/>
<path d="M544.07 45.2631C544.07 45.2631 530.507 40.7563 524.276 40.7563C514.486 40.7563 505.783 45.1642 493.689 50.547C482.684 55.4353 469.22 52.9911 469.22 52.9911C469.22 52.9911 461.873 51.762 449.878 59.377" stroke="#FCCA6E" stroke-miterlimit="10"/>
<path d="M499.397 64.124L493.689 50.5469" stroke="#FCCA6E" stroke-miterlimit="10"/>
</svg>
