<svg width="96" height="113" viewBox="0 0 96 113" fill="none" xmlns="http://www.w3.org/2000/svg">
<path d="M0.854676 96.9075L2.18232 1.38599L95.1428 11.4085L76.4765 105.057L37.2765 111.952L0.854676 96.9075Z" stroke="#FCCA6E"/>
<path d="M70.1644 98.3502L38.6191 104.176L48.3153 14.2628L85.7454 18.4368L70.1644 98.3502Z" stroke="#FCCA6E"/>
<path d="M45.8904 36.7666L47.0638 25.8308L76.0562 28.9589L73.9661 39.8034L45.8904 36.7666Z" fill="white" stroke="#FCCA6E"/>
<path d="M42.3165 60.5292L16.6311 57.7524L17.4866 22.6453L46.0695 25.7236L44.8962 36.6593L28.6936 34.9129L28.1537 34.8547L28.1402 35.3976L27.8402 47.4376L27.8287 47.8955L28.284 47.9469L43.4895 49.6611L42.3165 60.5292Z" fill="#ECEDEE" stroke="#FCCA6E"/>
<path d="M43.3108 60.6364L44.4836 49.7693L70.5057 52.5004L63.8242 87.0981L40.2085 91.3107L41.3972 80.265L54.3696 77.9019L54.7123 77.8395L54.7725 77.4965L57.3725 62.6865L57.4649 62.1601L56.9335 62.1029L43.3108 60.6364Z" fill="white" stroke="#FCCA6E"/>
<path d="M27.93 74.6217L27.9311 74.946L28.2276 75.0772L40.1837 80.3694L38.9854 91.474L17.0311 82.0608L17.0882 64.8465L27.9015 66.0093L27.93 74.6217Z" fill="#ECEDEE" stroke="#FCCA6E"/>
</svg>
