<svg width="96" height="112" viewBox="0 0 96 112" fill="none" xmlns="http://www.w3.org/2000/svg">
<g clip-path="url(#clip0_51_68)">
<path d="M26.4601 108.397L0.628454 18.8723L84.2335 0.60653L94.8553 93.0807L62.71 111.13L26.4601 108.397Z" stroke="#FCCA6E"/>
<path d="M44.3875 17.0602L78.286 9.72582L87.1276 88.8538L61.6125 102.975L44.3875 17.0602Z" stroke="#FCCA6E"/>
<path d="M22.9176 43.7771L19.957 33.7866L45.5721 28.0523L47.5695 38.2612L22.9176 43.7771Z" fill="#ECEDEE" stroke="#FCCA6E"/>
<path d="M65.639 57.9135L53.0365 60.7371L51.0144 50.5067L64.5535 47.3943L64.9859 47.2949L64.9386 46.8538L63.6924 35.2213L63.6327 34.6643L63.086 34.7867L48.5458 38.0427L46.5483 27.8338L72.1336 22.1075L78.6028 79.542L58.9389 90.516L56.9242 79.5941L67.736 73.6937L68.0326 73.5319L67.9931 73.1964L66.2449 58.343L66.1801 57.7923L65.639 57.9135Z" fill="white" stroke="#FCCA6E"/>
<path d="M52.0613 60.9606L41.4722 63.4459L38.6584 53.2009L50.0381 50.7249L52.0613 60.9606Z" fill="#ECEDEE" stroke="#FCCA6E"/>
<path d="M43.2459 78.4641L43.3325 78.8145L43.6924 78.8425L55.9448 79.7974L57.9654 90.7511L36.0417 89.2984L31.2878 72.486L41.217 70.2606L43.2459 78.4641Z" fill="#ECEDEE" stroke="#FCCA6E"/>
</g>
<defs>
<clipPath id="clip0_51_68">
<rect width="95.39" height="111.64" fill="white"/>
</clipPath>
</defs>
</svg>
